<svg xmlns="http://www.w3.org/2000/svg" viewBox="0 0 720 820" role="img"><rect width="720" height="820" fill="#f5f8fc"/><style>text{font-family:DejaVu Sans,Arial,sans-serif;fill:#17324b} .head{font-size:30px;font-weight:700}.label{font-size:25px;font-weight:600}.small{font-size:21px}.box{fill:#ffffff;stroke:#8ba4bc;stroke-width:2}.line{fill:none;stroke:#416b8c;stroke-width:3}</style><defs><marker id="arrow" markerWidth="8" markerHeight="8" refX="7" refY="4" orient="auto"><path d="M0 0L8 4L0 8Z" fill="#416b8c"/></marker></defs><title>Model upgrade across a complete agent job</title><text x="40" y="55" class="head">Model upgrade: two contracts</text><rect x="65" y="90" width="590" height="100" rx="15" fill="#ffffff" stroke="#8ba4bc" stroke-width="2"/><text x="360" y="127" text-anchor="middle" class="label">USER JOB</text><text x="360" y="161" text-anchor="middle" class="small">Goal / input revision / acceptance</text><path d="M360 190V225" class="line" marker-end="url(#arrow)"/><rect x="65" y="235" width="590" height="100" rx="15" fill="#e4f0fb" stroke="#8ba4bc" stroke-width="2"/><text x="360" y="272" text-anchor="middle" class="label">MODEL ADAPTER</text><text x="360" y="306" text-anchor="middle" class="small">Thinking mode / effort / typed blocks</text><path d="M360 335V370" class="line" marker-end="url(#arrow)"/><rect x="65" y="380" width="590" height="100" rx="15" fill="#ffffff" stroke="#8ba4bc" stroke-width="2"/><text x="360" y="417" text-anchor="middle" class="label">TOOL EXECUTION</text><text x="360" y="451" text-anchor="middle" class="small">Authorized scope / versioned evidence</text><path d="M360 480V515" class="line" marker-end="url(#arrow)"/><rect x="65" y="525" width="590" height="100" rx="15" fill="#e6f5ed" stroke="#8ba4bc" stroke-width="2"/><text x="360" y="562" text-anchor="middle" class="label">NEXT TURN</text><text x="360" y="596" text-anchor="middle" class="small">Original history / compatible state</text><path d="M360 625V655" class="line" marker-end="url(#arrow)"/><rect x="65" y="665" width="590" height="100" rx="15" fill="#ffffff" stroke="#8ba4bc" stroke-width="2"/><text x="360" y="702" text-anchor="middle" class="label">DELIVERY CHECK</text><text x="360" y="736" text-anchor="middle" class="small">Artifact / tests / completion evidence</text><text x="40" y="803" class="small">Author design · no measured timing</text><style>/* auto dark mode */@media (prefers-color-scheme: dark){svg:not([fill]){fill:#e4e6e7}[fill="#416b8c" i]{fill:#6291b6}[fill="#e4f0fb" i]{fill:#192632}[fill="#e6f5ed" i]{fill:#1f2e26}[fill="#f5f8fc" i]{fill:#192029}[fill="#ffffff" i]{fill:#1b1f20}[stroke="#8ba4bc" i]{stroke:#a4b8cb}text{fill:#c7d5e2}.box{fill:#1b1f20;stroke:#a4b8cb}.line{stroke:#6291b6}}</style>
</svg>
